<?xml version="1.0" standalone="no"?>
<!DOCTYPE svg PUBLIC "-//W3C//DTD SVG 20010904//EN"
 "http://www.w3.org/TR/2001/REC-SVG-20010904/DTD/svg10.dtd">
<svg version="1.0" xmlns="http://www.w3.org/2000/svg"
 width="1363.000000pt" height="1363.000000pt" viewBox="0 0 1363.000000 1363.000000"
 preserveAspectRatio="xMidYMid meet">
<metadata>
Created by potrace 1.11, written by Peter Selinger 2001-2013
</metadata>
<g transform="translate(0.000000,1363.000000) scale(0.100000,-0.100000)"
fill="#000000" stroke="none">
<path d="M4284 12808 c-3 -5 -6 -224 -6 -486 l0 -477 -156 -1 c-194 -2 -268
-8 -452 -39 -818 -139 -1541 -682 -1907 -1435 -57 -116 -119 -275 -153 -389
-28 -94 -26 -86 -54 -219 -24 -110 -29 -142 -45 -302 -5 -41 -8 -649 -7 -1350
1 -1206 2 -1277 19 -1311 22 -44 70 -95 111 -117 28 -15 74 -17 416 -17 427 0
408 -3 481 69 70 69 66 -7 66 1376 1 1297 2 1331 44 1490 128 483 456 856 919
1044 70 29 227 74 282 81 18 3 44 7 58 11 14 3 105 8 202 11 l177 6 0 -374 c0
-206 0 -404 0 -441 l1 -66 375 0 c343 0 376 2 374 17 -1 9 -1 206 0 439 l1
422 633 0 632 0 0 -437 0 -438 370 -2 c204 0 372 3 375 7 3 4 5 202 4 439 l0
431 623 0 623 0 0 -439 0 -439 375 0 375 0 0 440 0 440 318 -5 c174 -2 328 -7
342 -10 14 -3 43 -8 65 -12 153 -22 435 -136 554 -223 20 -14 61 -44 91 -66
281 -207 507 -572 569 -921 26 -146 29 -221 30 -745 l2 -555 -330 329 c-181
182 -346 338 -366 348 -50 26 -111 30 -173 12 -50 -14 -70 -32 -306 -267 -153
-152 -262 -268 -274 -293 -38 -75 -31 -169 18 -238 51 -73 1831 -1842 1876
-1864 50 -25 152 -25 204 1 20 10 438 420 961 945 821 821 928 932 942 973 18
55 14 137 -9 182 -26 51 -502 524 -552 548 -57 28 -116 32 -177 13 -45 -15
-84 -50 -385 -350 l-335 -333 -1 517 c0 459 -6 717 -19 793 -2 13 -9 59 -15
102 -17 113 -18 119 -55 262 -213 819 -834 1501 -1629 1789 -109 40 -300 95
-378 110 -106 19 -164 28 -288 43 -25 2 -187 6 -360 7 l-315 2 -2 304 c-1 168
-3 386 -3 486 l0 180 -372 0 -373 -1 -3 -485 -2 -485 -623 0 -622 0 -2 480 c0
264 -1 482 -2 485 -1 3 -169 6 -374 6 l-374 0 1 -483 c1 -315 -2 -483 -9 -484
-5 -1 -290 -2 -632 -3 l-623 -1 0 485 0 486 -371 0 c-203 0 -372 -4 -375 -8z"/>
<path d="M4499 8315 c-4 0 -3 -1155 1 -1157 3 -1 269 -2 591 -3 l587 -2 0 579
c0 431 -3 578 -11 579 -8 1 -979 4 -1168 4z"/>
<path d="M6093 7734 l0 -581 592 0 591 0 0 579 c0 401 -3 578 -10 579 -6 1
-272 2 -592 3 l-581 1 0 -581z"/>
<path d="M7719 8315 c-1 0 -2 -261 -3 -581 l-1 -581 593 0 592 0 -2 581 -3
580 -588 1 c-323 0 -588 0 -588 0z"/>
<path d="M4495 6200 l0 -580 591 0 592 0 0 580 0 580 -591 0 -592 0 0 -580z"/>
<path d="M6093 6200 l0 -580 592 0 591 0 0 578 -1 577 -591 3 -591 2 0 -580z"/>
<path d="M7717 6773 c-3 -7 -2 -1108 2 -1140 1 -10 126 -13 591 -13 l590 0 0
580 0 580 -589 0 c-325 0 -591 -3 -594 -7z"/>
<path d="M1984 6285 c-23 -7 -52 -20 -65 -29 -33 -22 -1794 -1781 -1834 -1831
-39 -49 -55 -93 -55 -154 1 -87 25 -119 283 -378 264 -266 301 -293 391 -293
96 1 117 17 469 368 180 180 327 325 327 322 1 -3 2 -282 4 -620 2 -338 6
-624 8 -635 3 -11 9 -47 12 -80 84 -728 515 -1422 1141 -1839 61 -40 135 -87
165 -104 30 -16 71 -39 90 -49 219 -122 608 -242 870 -269 36 -3 74 -9 85 -12
31 -8 5744 -10 5816 -1 196 22 202 23 259 33 70 11 85 14 88 16 2 3 6 4 52 14
339 73 729 264 1030 502 106 85 318 295 396 394 32 41 62 77 65 80 27 23 192
293 247 405 96 193 191 458 216 606 3 19 10 50 14 69 5 19 9 38 10 43 7 56 15
107 18 127 14 86 18 410 18 1485 l1 1210 -28 58 c-29 57 -80 104 -137 123 -14
4 -178 9 -365 10 -386 2 -419 -2 -486 -63 -22 -20 -49 -55 -59 -79 -19 -41
-20 -79 -21 -1301 -1 -1176 -3 -1265 -20 -1368 -41 -245 -147 -487 -296 -680
-262 -338 -630 -542 -1068 -591 -74 -8 -5605 -8 -5660 0 -22 4 -57 9 -78 11
-52 7 -196 41 -232 55 -17 7 -37 13 -46 15 -79 16 -342 161 -430 237 -15 13
-48 41 -75 63 -70 58 -188 197 -256 299 -112 169 -199 385 -224 554 -3 20 -7
44 -9 52 -13 48 -17 230 -17 675 0 275 1 513 1 530 1 27 29 2 334 -301 368
-367 375 -372 481 -361 30 3 69 13 87 23 45 23 521 499 544 544 11 20 20 62
21 97 5 101 -13 126 -293 405 -136 136 -547 547 -913 913 -480 481 -677 672
-709 687 -53 26 -111 30 -167 13z"/>
<path d="M4499 5288 c-1 -2 -2 -263 -3 -581 l-1 -577 590 2 590 3 0 575 0 575
-587 3 c-324 1 -589 1 -589 0z"/>
<path d="M6097 5283 c-2 -5 -4 -266 -4 -581 l0 -572 591 2 591 3 1 578 0 577
-587 0 c-323 0 -590 -3 -592 -7z"/>
<path d="M7719 5283 c-1 -5 -2 -266 -3 -580 l-1 -573 592 0 593 0 0 580 0 580
-590 0 c-324 0 -591 -3 -591 -7z"/>
</g>
</svg>
